{
	"samplers":[{
		"magFilter":9729,
		"minFilter":9729,
		"wrapS":10497,
		"wrapT":10497
	}],
	"asset":{
		"version":"2.0",
		"generator":"Blender Foundation Blender (stable FBX IO) 2.78 (sub 0)",
		"copyright":""
	},
	"scenes":[{
		"nodes":[0,
		1,
		2,
		3,
		4,
		5,
		6,
		7,
		8]
	}],
	"nodes":[{
		"name":"Rocket",
		"mesh":0,
		"scale":[1.0,
		1.0,
		1.0],
		"translation":[33.42829895019531,
		402.4498291015625,
		-29.3804988861084],
		"rotation":[0.49367520213127139,
		0.20535297691822053,
		-0.002027007983997464,
		-0.8450508117675781]
	},
	{
		"name":"Rocket",
		"mesh":1,
		"scale":[1.0,
		1.0,
		1.0],
		"translation":[33.42829895019531,
		402.4498291015625,
		-29.3804988861084],
		"rotation":[0.49367520213127139,
		0.20535297691822053,
		-0.002027007983997464,
		-0.8450508117675781]
	},
	{
		"name":"Rocket",
		"mesh":2,
		"scale":[1.0,
		1.0,
		1.0],
		"translation":[33.42829895019531,
		402.4498291015625,
		-29.3804988861084],
		"rotation":[0.49367520213127139,
		0.20535297691822053,
		-0.002027007983997464,
		-0.8450508117675781]
	},
	{
		"name":"Rocket",
		"mesh":3,
		"scale":[1.0,
		1.0,
		1.0],
		"translation":[33.42829895019531,
		402.4498291015625,
		-29.3804988861084],
		"rotation":[0.49367520213127139,
		0.20535297691822053,
		-0.002027007983997464,
		-0.8450508117675781]
	},
	{
		"name":"Rocket",
		"mesh":4,
		"scale":[1.0,
		1.0,
		1.0],
		"translation":[33.42829895019531,
		402.4498291015625,
		-29.3804988861084],
		"rotation":[0.49367520213127139,
		0.20535297691822053,
		-0.002027007983997464,
		-0.8450508117675781]
	},
	{
		"name":"Rocket",
		"mesh":5,
		"scale":[1.0,
		1.0,
		1.0],
		"translation":[33.42829895019531,
		402.4498291015625,
		-29.3804988861084],
		"rotation":[0.49367520213127139,
		0.20535297691822053,
		-0.002027007983997464,
		-0.8450508117675781]
	},
	{
		"name":"Rocket",
		"mesh":6,
		"scale":[1.0,
		1.0,
		1.0],
		"translation":[33.42829895019531,
		402.4498291015625,
		-29.3804988861084],
		"rotation":[0.49367520213127139,
		0.20535297691822053,
		-0.002027007983997464,
		-0.8450508117675781]
	},
	{
		"name":"Rocket",
		"mesh":7,
		"scale":[1.0,
		1.0,
		1.0],
		"translation":[33.42829895019531,
		402.4498291015625,
		-29.3804988861084],
		"rotation":[0.49367520213127139,
		0.20535297691822053,
		-0.002027007983997464,
		-0.8450508117675781]
	},
	{
		"name":"Rocket",
		"mesh":8,
		"scale":[1.0,
		1.0,
		1.0],
		"translation":[33.42829895019531,
		402.4498291015625,
		-29.3804988861084],
		"rotation":[0.49367520213127139,
		0.20535297691822053,
		-0.002027007983997464,
		-0.8450508117675781]
	}],
	"meshes":[{
		"name":"Rocket",
		"primitives":[{
			"attributes":{
				"POSITION":1,
				"NORMAL":2,
				"TEXCOORD_0":3
			},
			"indices":0,
			"material":0
		}]
	},
	{
		"name":"Rocket",
		"primitives":[{
			"attributes":{
				"POSITION":5,
				"NORMAL":6,
				"TEXCOORD_0":7
			},
			"indices":4,
			"material":0
		}]
	},
	{
		"name":"Rocket",
		"primitives":[{
			"attributes":{
				"POSITION":9,
				"NORMAL":10,
				"TEXCOORD_0":11
			},
			"indices":8,
			"material":0
		}]
	},
	{
		"name":"Rocket",
		"primitives":[{
			"attributes":{
				"POSITION":13,
				"NORMAL":14,
				"TEXCOORD_0":15
			},
			"indices":12,
			"material":0
		}]
	},
	{
		"name":"Rocket",
		"primitives":[{
			"attributes":{
				"POSITION":17,
				"NORMAL":18,
				"TEXCOORD_0":19
			},
			"indices":16,
			"material":0
		}]
	},
	{
		"name":"Rocket",
		"primitives":[{
			"attributes":{
				"POSITION":21,
				"NORMAL":22,
				"TEXCOORD_0":23
			},
			"indices":20,
			"material":0
		}]
	},
	{
		"name":"Rocket",
		"primitives":[{
			"attributes":{
				"POSITION":25,
				"NORMAL":26,
				"TEXCOORD_0":27
			},
			"indices":24,
			"material":0
		}]
	},
	{
		"name":"Rocket",
		"primitives":[{
			"attributes":{
				"POSITION":29,
				"NORMAL":30,
				"TEXCOORD_0":31
			},
			"indices":28,
			"material":0
		}]
	},
	{
		"name":"Rocket",
		"primitives":[{
			"attributes":{
				"POSITION":33,
				"NORMAL":34,
				"TEXCOORD_0":35
			},
			"indices":32,
			"material":0
		}]
	}],
	"accessors":[{
		"bufferView":0,
		"type":"SCALAR",
		"componentType":5123,
		"count":6528,
		"byteOffset":0,
		"min":[0],
		"max":[6527]
	},
	{
		"bufferView":1,
		"type":"VEC3",
		"componentType":5126,
		"count":6528,
		"byteOffset":0,
		"min":[-243.0409698486328,
		-243.0410614013672,
		-373.1130676269531],
		"max":[243.0409698486328,
		243.04095458984376,
		392.635986328125]
	},
	{
		"bufferView":1,
		"type":"VEC3",
		"componentType":5126,
		"count":6528,
		"byteOffset":12,
		"min":[-0.9999998807907105,
		-0.9999998807907105,
		-1.0],
		"max":[0.9999998807907105,
		0.9999998807907105,
		0.9366561770439148]
	},
	{
		"bufferView":1,
		"type":"VEC2",
		"componentType":5126,
		"count":6528,
		"byteOffset":24,
		"min":[0.01645946502685547,
		0.13637161254882813],
		"max":[0.97802734375,
		0.9828643798828125]
	},
	{
		"bufferView":2,
		"type":"SCALAR",
		"componentType":5123,
		"count":1152,
		"byteOffset":0,
		"min":[0],
		"max":[1151]
	},
	{
		"bufferView":3,
		"type":"VEC3",
		"componentType":5126,
		"count":1152,
		"byteOffset":0,
		"min":[-86.37371063232422,
		-255.80812072753907,
		56.337894439697269],
		"max":[86.37371063232422,
		-226.55517578125,
		225.32029724121095]
	},
	{
		"bufferView":3,
		"type":"VEC3",
		"componentType":5126,
		"count":1152,
		"byteOffset":12,
		"min":[-0.4804339110851288,
		-0.9999842643737793,
		-0.14785335958003999],
		"max":[0.4804339110851288,
		-0.8571931719779968,
		0.4245448112487793]
	},
	{
		"bufferView":3,
		"type":"VEC2",
		"componentType":5126,
		"count":1152,
		"byteOffset":24,
		"min":[0.014679193496704102,
		0.26039886474609377],
		"max":[0.12507247924804688,
		0.36629486083984377]
	},
	{
		"bufferView":4,
		"type":"SCALAR",
		"componentType":5123,
		"count":2688,
		"byteOffset":0,
		"min":[0],
		"max":[2687]
	},
	{
		"bufferView":5,
		"type":"VEC3",
		"componentType":5126,
		"count":2688,
		"byteOffset":0,
		"min":[-113.03453826904297,
		-256.4460144042969,
		20.524290084838868],
		"max":[113.03453826904297,
		-175.72589111328126,
		252.29405212402345]
	},
	{
		"bufferView":5,
		"type":"VEC3",
		"componentType":5126,
		"count":2688,
		"byteOffset":12,
		"min":[-0.9997997283935547,
		-0.9996270537376404,
		-0.9830538630485535],
		"max":[0.9997997283935547,
		0.23888900876045228,
		0.9989328384399414]
	},
	{
		"bufferView":5,
		"type":"VEC2",
		"componentType":5126,
		"count":2688,
		"byteOffset":24,
		"min":[0.09344100952148438,
		0.10025596618652344],
		"max":[0.2783203125,
		0.29285430908203127]
	},
	{
		"bufferView":6,
		"type":"SCALAR",
		"componentType":5123,
		"count":5280,
		"byteOffset":0,
		"min":[0],
		"max":[5279]
	},
	{
		"bufferView":7,
		"type":"VEC3",
		"componentType":5126,
		"count":5280,
		"byteOffset":0,
		"min":[-148.93983459472657,
		-148.93983459472657,
		-462.8118896484375],
		"max":[148.93984985351563,
		148.9398651123047,
		-345.1917419433594]
	},
	{
		"bufferView":7,
		"type":"VEC3",
		"componentType":5126,
		"count":5280,
		"byteOffset":12,
		"min":[-1.0,
		-1.0,
		-1.0],
		"max":[1.0,
		1.0,
		0.0]
	},
	{
		"bufferView":7,
		"type":"VEC2",
		"componentType":5126,
		"count":5280,
		"byteOffset":24,
		"min":[0.43819427490234377,
		0.1741790771484375],
		"max":[0.971771240234375,
		0.976959228515625]
	},
	{
		"bufferView":8,
		"type":"SCALAR",
		"componentType":5123,
		"count":3072,
		"byteOffset":0,
		"min":[0],
		"max":[3071]
	},
	{
		"bufferView":9,
		"type":"VEC3",
		"componentType":5126,
		"count":3072,
		"byteOffset":0,
		"min":[-163.5240020751953,
		-163.5240478515625,
		379.39501953125],
		"max":[163.5240020751953,
		163.5239715576172,
		556.4031982421875]
	},
	{
		"bufferView":9,
		"type":"VEC3",
		"componentType":5126,
		"count":3072,
		"byteOffset":12,
		"min":[-0.9999163746833801,
		-0.9999163746833801,
		-0.4710196852684021],
		"max":[0.9999163746833801,
		0.9999163746833801,
		1.0]
	},
	{
		"bufferView":9,
		"type":"VEC2",
		"componentType":5126,
		"count":3072,
		"byteOffset":24,
		"min":[0.09241104125976563,
		0.30226898193359377],
		"max":[0.8896026611328125,
		0.46135711669921877]
	},
	{
		"bufferView":10,
		"type":"SCALAR",
		"componentType":5123,
		"count":1296,
		"byteOffset":0,
		"min":[0],
		"max":[1295]
	},
	{
		"bufferView":11,
		"type":"VEC3",
		"componentType":5126,
		"count":1296,
		"byteOffset":0,
		"min":[-198.2063446044922,
		-198.20626831054688,
		-427.16778564453127],
		"max":[-103.35894775390625,
		-103.35890197753906,
		-84.73047637939453]
	},
	{
		"bufferView":11,
		"type":"VEC3",
		"componentType":5126,
		"count":1296,
		"byteOffset":12,
		"min":[-0.9652795791625977,
		-0.9652795791625977,
		-0.9534657001495361],
		"max":[0.8101341128349304,
		0.8101341128349304,
		0.5476315021514893]
	},
	{
		"bufferView":11,
		"type":"VEC2",
		"componentType":5126,
		"count":1296,
		"byteOffset":24,
		"min":[0.3463287353515625,
		0.02354907989501953],
		"max":[0.9844970703125,
		0.23490524291992188]
	},
	{
		"bufferView":12,
		"type":"SCALAR",
		"componentType":5123,
		"count":1296,
		"byteOffset":0,
		"min":[0],
		"max":[1295]
	},
	{
		"bufferView":13,
		"type":"VEC3",
		"componentType":5126,
		"count":1296,
		"byteOffset":0,
		"min":[103.35890197753906,
		-198.20632934570313,
		-427.16778564453127],
		"max":[198.2062530517578,
		-103.35894775390625,
		-84.73047637939453]
	},
	{
		"bufferView":13,
		"type":"VEC3",
		"componentType":5126,
		"count":1296,
		"byteOffset":12,
		"min":[-0.8101341128349304,
		-0.9652795791625977,
		-0.9534657001495361],
		"max":[0.9652795791625977,
		0.8101341128349304,
		0.5476618409156799]
	},
	{
		"bufferView":13,
		"type":"VEC2",
		"componentType":5126,
		"count":1296,
		"byteOffset":24,
		"min":[0.11314010620117188,
		0.018376827239990236],
		"max":[0.95172119140625,
		0.22779083251953126]
	},
	{
		"bufferView":14,
		"type":"SCALAR",
		"componentType":5123,
		"count":1296,
		"byteOffset":0,
		"min":[0],
		"max":[1295]
	},
	{
		"bufferView":15,
		"type":"VEC3",
		"componentType":5126,
		"count":1296,
		"byteOffset":0,
		"min":[-198.2062530517578,
		103.35895538330078,
		-427.16778564453127],
		"max":[-103.3589096069336,
		198.20635986328126,
		-84.73047637939453]
	},
	{
		"bufferView":15,
		"type":"VEC3",
		"componentType":5126,
		"count":1296,
		"byteOffset":12,
		"min":[-0.9652795791625977,
		-0.8101341128349304,
		-0.9534657001495361],
		"max":[0.8101341128349304,
		0.9652795791625977,
		0.5476315021514893]
	},
	{
		"bufferView":15,
		"type":"VEC2",
		"componentType":5126,
		"count":1296,
		"byteOffset":24,
		"min":[0.025892257690429689,
		0.006530642509460449],
		"max":[0.81219482421875,
		0.23867034912109376]
	},
	{
		"bufferView":16,
		"type":"SCALAR",
		"componentType":5123,
		"count":1296,
		"byteOffset":0,
		"min":[0],
		"max":[1295]
	},
	{
		"bufferView":17,
		"type":"VEC3",
		"componentType":5126,
		"count":1296,
		"byteOffset":0,
		"min":[103.35894775390625,
		103.35892486572266,
		-427.16778564453127],
		"max":[198.2063446044922,
		198.206298828125,
		-84.73047637939453]
	},
	{
		"bufferView":17,
		"type":"VEC3",
		"componentType":5126,
		"count":1296,
		"byteOffset":12,
		"min":[-0.8101341128349304,
		-0.8101341128349304,
		-0.9534657001495361],
		"max":[0.9652795791625977,
		0.9652795791625977,
		0.5476315021514893]
	},
	{
		"bufferView":17,
		"type":"VEC2",
		"componentType":5126,
		"count":1296,
		"byteOffset":24,
		"min":[0.4124908447265625,
		0.012397527694702149],
		"max":[0.7486114501953125,
		0.18756866455078126]
	}],
	"bufferViews":[{
		"buffer":0,
		"byteOffset":0,
		"byteLength":13056,
		"target":34963
	},
	{
		"buffer":0,
		"byteOffset":13056,
		"byteLength":208896,
		"target":34962,
		"byteStride":32
	},
	{
		"buffer":1,
		"byteOffset":0,
		"byteLength":2304,
		"target":34963
	},
	{
		"buffer":1,
		"byteOffset":2304,
		"byteLength":36864,
		"target":34962,
		"byteStride":32
	},
	{
		"buffer":2,
		"byteOffset":0,
		"byteLength":5376,
		"target":34963
	},
	{
		"buffer":2,
		"byteOffset":5376,
		"byteLength":86016,
		"target":34962,
		"byteStride":32
	},
	{
		"buffer":3,
		"byteOffset":0,
		"byteLength":10560,
		"target":34963
	},
	{
		"buffer":3,
		"byteOffset":10560,
		"byteLength":168960,
		"target":34962,
		"byteStride":32
	},
	{
		"buffer":4,
		"byteOffset":0,
		"byteLength":6144,
		"target":34963
	},
	{
		"buffer":4,
		"byteOffset":6144,
		"byteLength":98304,
		"target":34962,
		"byteStride":32
	},
	{
		"buffer":5,
		"byteOffset":0,
		"byteLength":2592,
		"target":34963
	},
	{
		"buffer":5,
		"byteOffset":2592,
		"byteLength":41472,
		"target":34962,
		"byteStride":32
	},
	{
		"buffer":6,
		"byteOffset":0,
		"byteLength":2592,
		"target":34963
	},
	{
		"buffer":6,
		"byteOffset":2592,
		"byteLength":41472,
		"target":34962,
		"byteStride":32
	},
	{
		"buffer":7,
		"byteOffset":0,
		"byteLength":2592,
		"target":34963
	},
	{
		"buffer":7,
		"byteOffset":2592,
		"byteLength":41472,
		"target":34962,
		"byteStride":32
	},
	{
		"buffer":8,
		"byteOffset":0,
		"byteLength":2592,
		"target":34963
	},
	{
		"buffer":8,
		"byteOffset":2592,
		"byteLength":41472,
		"target":34962,
		"byteStride":32
	}],
	"buffers":[{
		"uri":"data:application/octet-stream;base64,",
		"byteLength":221952
	},
	{
		"uri":"data:application/octet-stream;base64,",
		"byteLength":39168
	},
	{
		"uri":"data:application/octet-stream;base64,",
		"byteLength":91392
	},
	{
		"uri":"data:application/octet-stream;base64,",
		"byteLength":179520
	},
	{
		"uri":"data:application/octet-stream;base64,",
		"byteLength":104448
	},
	{
		"uri":"data:application/octet-stream;base64,",
		"byteLength":44064
	},
	{
		"uri":"data:application/octet-stream;base64,",
		"byteLength":44064
	},
	{
		"uri":"data:application/octet-stream;base64,",
		"byteLength":44064
	},
	{
		"uri":"data:application/octet-stream;base64,",
		"byteLength":44064
	}],
	"images":[{
		"uri":"data:image/png;base64,"
	}],
	"textures":[{
		"sampler":0,
		"source":0
	}],
	"materials":[{
		"pbrMetallicRoughness":{
			"baseColorTexture":{
				"index":0
			},
			"baseColorFactor":[1.0,
			1.0,
			1.0,
			1.0],
			"metallicFactor":0.0,
			"roughnessFactor":0.5
		},
		"emissiveFactor":[0.0,
		0.0,
		0.0],
		"alphaMode":"OPAQUE",
		"doubleSided":false,
		"name":"Rocket"
	}]
}